# xmcd CD database file
#
# Track frame offsets:
#	150
#	14215
#	35221
#	56571
#	77604
#	89641
#	101688
#	121551
#	139598
#	155579
#	169664
#
# Disc length: 2435 seconds
#
# Revision: 0
# Processed by: cddbd v1.4PL0 Copyright (c) Steve Scherf et al.
# Submitted via: CDex 1.50beta10
#
DISCID=8f09810b
DTITLE=ROBERT MALMBERG TRIO - linnea
DYEAR=1980
DGENRE=Jazz
TTITLE0=SAMBA FOR MY FRIENDS
TTITLE1=YOU, THE MOON AND THE SEA
TTITLE2=JAG HAR BOTT VID EN LANDSVAG
TTITLE3=WIVES AND LOVERS
TTITLE4=A CLOUD IN THE SKY
TTITLE5=EMPTY POCKET SAMBA
TTITLE6=WALTZ FOR AMBRES
TTITLE7=LINNEA
TTITLE8=MY PRAYERS ANSWER
TTITLE9=GLITTERING FALLS
TTITLE10=ALFIE
EXTD=YEAR: 1980
EXTT0=
EXTT1=
EXTT2=
EXTT3=
EXTT4=
EXTT5=
EXTT6=
EXTT7=
EXTT8=
EXTT9=
EXTT10=
PLAYORDER=
